<?xml version="1.0" standalone="no"?>
<!DOCTYPE svg PUBLIC "-//W3C//DTD SVG 20010904//EN"
 "http://www.w3.org/TR/2001/REC-SVG-20010904/DTD/svg10.dtd">
<svg version="1.0" xmlns="http://www.w3.org/2000/svg"
 width="96.000000pt" height="96.000000pt" viewBox="0 0 96.000000 96.000000"
 preserveAspectRatio="xMidYMid meet">

<g transform="translate(0.000000,96.000000) scale(0.100000,-0.100000)"
fill="#000000" stroke="none">
<path d="M442 825 c-38 -32 -54 -72 -50 -126 2 -35 8 -46 29 -58 54 -30 120
27 135 117 13 83 -50 121 -114 67z"/>
<path d="M170 810 c-29 -29 -40 -63 -40 -121 0 -40 5 -55 25 -74 32 -33 60
-31 96 4 25 26 29 37 29 86 0 105 -57 158 -110 105z"/>
<path d="M684 679 c-92 -27 -139 -149 -69 -181 36 -16 74 -1 122 46 51 52 59
103 21 130 -25 18 -30 18 -74 5z"/>
<path d="M270 510 c-36 -16 -73 -30 -83 -30 -26 0 -67 -45 -67 -73 0 -40 42
-89 107 -124 47 -26 68 -46 89 -80 40 -68 70 -93 114 -93 64 0 83 25 92 116 4
44 10 94 14 111 9 47 -2 78 -44 125 -38 42 -101 78 -137 78 -11 -1 -49 -14
-85 -30z"/>
<path d="M704 406 c-62 -27 -98 -99 -70 -141 13 -20 25 -25 61 -25 35 0 51 6
80 31 35 31 65 77 65 99 0 5 -9 19 -20 30 -23 23 -70 26 -116 6z"/>
</g>
</svg>
